# xmcd
#
# Track frame offsets:
#	150
#	14845
#	41118
#	52720
#	66428
#	77035
#	94935
#	108985
#	122990
#	136655
#	153903
#	165453
#	177690
#	188608
#	200503
#	215218
#	226660
#	238950
#
# Disc length: 3307 seconds
#
# Revision: 2
# Processed by: cddbd v1.4PL0 Copyright (c) Steve Scherf et al.
# Submitted via: audiograbber 1.81.03
#
DISCID=fe0ce912
DTITLE=Various Artist - Livin' With The Blues
DYEAR=1995
DGENRE=Blues
TTITLE0=Muddy Waters - Rock Me
TTITLE1=Brownie McGhee, Lightnin' Hopkins, Big Joe Williams, Sonny Terry - Wimm
TTITLE1=in From Coast To Coast
TTITLE2=Lil' Son Jackson - Ticket Agent Blues
TTITLE3=T Bone Walker - Call It Stormy Monday But Tuesday Is Just As Bad
TTITLE4=Memphis Slim - How Long
TTITLE5=Brownie McGhee and  Sonny Terry - Livin' With The Blues
TTITLE6=Jimmy Rogers - That's All Right
TTITLE7=John Lee Hooker - Three Voice Original Mood
TTITLE8=Mississippi Fred Mcdowell - Kokomo Me Baby
TTITLE9=Son House - Death Letter Blues
TTITLE10=Big Joe Williams - Pearly Mae
TTITLE11=Sonny Terry - Whoopin' The Blues
TTITLE12=Smokey Hogg - When I've Been Drinkin'
TTITLE13=Snooks Eaglin - By The Water
TTITLE14=Lowell Fulson - Good Woman Blues
TTITLE15=Gatemouth Brown - Gatemouth Boogie
TTITLE16=Pee Wee Crayton - Daybreak
TTITLE17=Roy Brown - Let The Four Winds Blow
EXTD=
EXTT0=Muddy Waters\n
EXTT1=McGhee/Hopkins/Williams/Terry\n
EXTT2='Lil Son Jackson\n
EXTT3=T-Bone Walker\n
EXTT4=Memphis Slim\n
EXTT5=Brownie McGhee and Sonny Terry\n
EXTT6=Jimmy Rogers\n
EXTT7=John Lee Hooker\n
EXTT8=Mississippi Fred McDowell\n
EXTT9=Son House\n
EXTT10=Big Joe Williams\n
EXTT11=Sonny Terry\n
EXTT12=Smokey Hogg\n
EXTT13=Snooks Eaglin\n
EXTT14=Lowell Fulson\n
EXTT15=Gatemouth Brown\n
EXTT16=Pee Wee Crayton\n
EXTT17=Roy Brown\n
PLAYORDER=
